<svg width="274" height="96" viewBox="0 0 274 96" fill="none" xmlns="http://www.w3.org/2000/svg">
<path d="M0 72.8704V56.2622L40.3513 0H66.6952L27.5005 56.2622L15.4209 52.6573H85.7143V72.8704H0ZM47.5477 90.1225V72.8704L48.3187 52.6573V37.3364H72.3495V90.1225H47.5477Z" fill="#030311"/>
<path d="M187.592 72.8704V56.2622L227.943 0H254.287L215.092 56.2622L203.013 52.6573H273.306V72.8704H187.592ZM235.139 90.1225V72.8704L235.91 52.6573V37.3364H259.941V90.1225H235.139Z" fill="#030311"/>
<g clip-path="url(#clip0_4988_14853)">
<path style="mix-blend-mode:multiply" opacity="0.8" d="M143.47 82.3074C165.154 82.4114 182.718 85.5626 182.694 89.3457C182.678 93.1287 165.083 96.112 143.398 96C121.713 95.896 104.15 92.7448 104.166 88.9618C104.182 85.1787 121.777 82.1955 143.462 82.3074H143.47Z" fill="url(#paint0_radial_4988_14853)"/>
<path d="M181.136 45.3247C181.136 70.3584 160.874 90.6493 135.874 90.6493C110.875 90.6493 90.6123 70.3584 90.6123 45.3247C90.6123 20.2909 110.875 0 135.874 0C160.874 0 181.136 20.2909 181.136 45.3247Z" fill="url(#paint1_radial_4988_14853)"/>
<path d="M168.294 24.8898C168.294 20.4829 167.775 16.1959 166.8 12.085C164.109 7.42214 161.074 5.38265 154.964 4.29492C156.098 8.70982 155.171 12.4529 155.171 17.2197C155.171 47.7241 130.755 73.2697 100.293 73.2697C100.197 73.2697 101.914 77.7486 106.579 79.7241C108.735 79.98 110.923 80.116 113.144 80.116C143.606 80.116 168.302 55.3862 168.302 24.8818L168.294 24.8898Z" fill="#EE484C"/>
<path d="M168.294 24.8898C168.294 20.4829 167.775 16.1959 166.8 12.085C164.109 7.42214 161.074 5.38265 154.964 4.29492C156.098 8.70982 155.171 12.4529 155.171 17.2197C155.171 47.7241 130.755 73.2697 100.293 73.2697C100.197 73.2697 101.914 77.7486 106.579 79.7241C108.735 79.98 110.923 80.116 113.144 80.116C143.606 80.116 168.302 55.3862 168.302 24.8818L168.294 24.8898Z" fill="url(#paint2_radial_4988_14853)"/>
<mask id="mask0_4988_14853" style="mask-type:luminance" maskUnits="userSpaceOnUse" x="90" y="0" width="92" height="91">
<path d="M166.848 12.2769C166.832 12.2129 166.824 12.157 166.808 12.093C164.156 7.50212 161.185 5.46263 155.267 4.35891C149.388 1.56761 142.815 0 135.874 0C110.875 0 90.6123 20.2909 90.6123 45.3247C90.6123 55.914 94.2384 65.6476 100.308 73.3657C100.484 73.9575 102.185 77.7006 106.227 79.5801C114.166 86.4744 124.533 90.6573 135.874 90.6573C160.874 90.6573 181.136 70.3664 181.136 45.3327C181.136 32.2959 175.641 20.5469 166.84 12.2769H166.848Z" fill="white"/>
</mask>
<g mask="url(#mask0_4988_14853)">
<path d="M102.13 77.6206C101.331 77.6206 100.524 77.6046 99.7178 77.5726V77.3007C100.524 77.3327 101.331 77.3487 102.13 77.3487C121.538 77.3487 140.339 68.3429 151.665 53.4827C162.351 39.4702 165.171 22.0265 159.62 4.38293L159.884 4.30295C165.466 22.0425 162.623 39.5661 151.881 53.6586C140.507 68.5829 121.618 77.6286 102.13 77.6286V77.6206Z" fill="#030311"/>
<path d="M139.629 50.0755C144.277 44.3409 147.68 37.3907 149.74 29.4247C151.809 21.4267 152.6 12.133 152.08 1.79956L151.258 1.83955C153.27 42.2614 135.332 64.7758 96.4033 70.6863L96.5231 71.5021C106.219 70.0305 114.733 67.5111 121.834 64.008C129.03 60.4569 135.012 55.7701 139.621 50.0835L139.629 50.0755Z" fill="white"/>
<path d="M100.54 75.3332L100.604 76.149C101.059 76.109 101.515 76.069 101.97 76.029L101.89 75.2132C101.443 75.2532 100.987 75.2932 100.532 75.3332H100.54Z" fill="white"/>
<path d="M135.636 63.6081C134.909 64.112 134.158 64.6078 133.407 65.0717L133.839 65.7676C134.605 65.2877 135.364 64.7918 136.099 64.2799L135.636 63.6001V63.6081Z" fill="white"/>
<path d="M158.295 17.7476H159.117C159.117 16.8518 159.085 15.94 159.045 15.0363L158.223 15.0762C158.263 15.972 158.287 16.8678 158.295 17.7476Z" fill="white"/>
<path d="M128.759 67.7031C127.976 68.103 127.169 68.4949 126.354 68.8628L126.698 69.6066C127.521 69.2307 128.335 68.8388 129.134 68.4309L128.759 67.7031Z" fill="white"/>
<path d="M154.173 42.7813L153.422 42.4454C153.062 43.2532 152.671 44.061 152.264 44.8448L152.99 45.2207C153.398 44.4209 153.797 43.5971 154.165 42.7813H154.173Z" fill="white"/>
<path d="M151.649 46.0205C151.226 46.7963 150.771 47.5721 150.308 48.3239L151.002 48.7558C151.474 47.996 151.937 47.2042 152.368 46.4124L151.649 46.0205Z" fill="white"/>
<path d="M132.265 65.7756C131.506 66.2235 130.731 66.6634 129.94 67.0872L130.324 67.8151C131.122 67.3832 131.913 66.9433 132.68 66.4874L132.257 65.7836L132.265 65.7756Z" fill="white"/>
<path d="M125.459 70.1585L125.132 69.4067C124.325 69.7586 123.495 70.0945 122.664 70.4224L122.96 71.1902C123.798 70.8623 124.645 70.5184 125.459 70.1665V70.1585Z" fill="white"/>
<path d="M155.698 39.0142L154.923 38.7343C154.62 39.5741 154.3 40.4059 153.957 41.2217L154.716 41.5416C155.059 40.7178 155.395 39.862 155.698 39.0142Z" fill="white"/>
<path d="M156.929 35.1432L156.138 34.9193C155.898 35.7751 155.643 36.6309 155.363 37.4706L156.138 37.7266C156.418 36.8788 156.681 36.007 156.929 35.1352V35.1432Z" fill="white"/>
<path d="M159.117 19.0912H158.295C158.287 19.979 158.263 20.8828 158.215 21.7546L159.037 21.7946C159.077 20.9068 159.109 19.995 159.117 19.0912Z" fill="white"/>
<path d="M118.887 71.7581L119.134 72.5419C119.997 72.2619 120.852 71.966 121.69 71.6621L121.411 70.8943C120.58 71.1982 119.733 71.4861 118.887 71.7581Z" fill="white"/>
<path d="M144.684 55.7461C144.085 56.3939 143.47 57.0417 142.831 57.6656L143.406 58.2494C144.045 57.6176 144.684 56.9618 145.283 56.2979L144.676 55.7461H144.684Z" fill="white"/>
<path d="M157.895 25.7536L158.709 25.8416C158.805 24.9538 158.893 24.05 158.949 23.1462L158.134 23.0902C158.07 23.978 157.99 24.8738 157.895 25.7536Z" fill="white"/>
<path d="M157.32 29.7126L158.127 29.8565C158.287 28.9768 158.423 28.081 158.542 27.1852L157.728 27.0732C157.608 27.961 157.472 28.8488 157.32 29.7126Z" fill="white"/>
<path d="M157.799 9.73359L158.614 9.63761C158.518 8.75783 158.399 7.85406 158.271 6.95828L157.456 7.07825C157.584 7.96603 157.696 8.86181 157.799 9.73359Z" fill="white"/>
<path d="M107.193 74.5414L107.321 75.3492C108.216 75.2052 109.11 75.0452 109.981 74.8773L109.829 74.0695C108.966 74.2374 108.08 74.3894 107.193 74.5334V74.5414Z" fill="white"/>
<path d="M111.14 73.8136L111.307 74.6134C112.194 74.4294 113.072 74.2295 113.943 74.0135L113.751 73.2137C112.897 73.4217 112.018 73.6216 111.148 73.8056L111.14 73.8136Z" fill="white"/>
<path d="M158.15 13.7326L158.973 13.6846C158.917 12.7968 158.845 11.885 158.757 10.9893L157.942 11.0692C158.03 11.957 158.102 12.8528 158.158 13.7326H158.15Z" fill="white"/>
<path d="M157.879 31.1922L157.072 31.0323C156.897 31.904 156.697 32.7758 156.481 33.6316L157.28 33.8316C157.496 32.9598 157.703 32.072 157.879 31.1922Z" fill="white"/>
<path d="M105.876 74.7413C105.006 74.8693 104.111 74.9813 103.225 75.0773L103.312 75.893C104.207 75.7891 105.11 75.6771 105.988 75.5491L105.868 74.7333L105.876 74.7413Z" fill="white"/>
<path d="M138.846 61.2087C138.159 61.7606 137.448 62.3044 136.722 62.8323L137.201 63.4961C137.936 62.9603 138.655 62.4084 139.357 61.8486L138.846 61.2087Z" fill="white"/>
<path d="M150.267 49.8995L149.58 49.4517C149.093 50.1875 148.582 50.9233 148.055 51.6351L148.718 52.123C149.253 51.3952 149.772 50.6514 150.267 49.8995Z" fill="white"/>
<path d="M147.257 52.6908C146.714 53.3867 146.147 54.0825 145.563 54.7463L146.186 55.2822C146.777 54.6024 147.353 53.8985 147.904 53.1947L147.257 52.6908Z" fill="white"/>
<path d="M115.045 72.8858L115.253 73.6776C116.123 73.4456 117.002 73.1977 117.849 72.9418L117.609 72.158C116.762 72.4139 115.9 72.6618 115.037 72.8858H115.045Z" fill="white"/>
<path d="M141.873 58.5854C141.226 59.1852 140.555 59.7851 139.876 60.3609L140.403 60.9848C141.09 60.4009 141.777 59.7931 142.432 59.1852L141.873 58.5854Z" fill="white"/>
<path d="M158.055 5.59062C157.983 5.14273 157.903 4.68684 157.823 4.23096L157.017 4.37492C157.096 4.82281 157.168 5.2707 157.24 5.71859L158.047 5.59062H158.055Z" fill="white"/>
<path d="M106.163 78.4684C105.708 78.4684 105.261 78.4764 104.806 78.4764V79.3002C105.269 79.3002 105.724 79.3002 106.179 79.2842L106.163 78.4604V78.4684Z" fill="white"/>
<path d="M166.098 26.6734L165.275 26.6334C165.227 27.5531 165.155 28.4809 165.067 29.3927L165.882 29.4727C165.97 28.5529 166.042 27.6171 166.09 26.6734H166.098Z" fill="white"/>
<path d="M157.735 53.1067C158.238 52.3309 158.733 51.5231 159.188 50.7153L158.478 50.3074C158.022 51.0992 157.543 51.891 157.048 52.6588L157.735 53.1067Z" fill="white"/>
<path d="M165.299 21.1067L166.121 21.0748C166.081 20.155 166.025 19.2112 165.946 18.2755L165.131 18.3474C165.211 19.2672 165.267 20.195 165.307 21.1067H165.299Z" fill="white"/>
<path d="M165.73 30.8643L164.915 30.7603C164.803 31.6721 164.668 32.5919 164.508 33.4956L165.314 33.6396C165.474 32.7278 165.61 31.7921 165.73 30.8643Z" fill="white"/>
<path d="M164.995 16.9638L165.81 16.8758C165.714 15.956 165.594 15.0203 165.458 14.0925L164.644 14.2125C164.779 15.1242 164.891 16.052 164.987 16.9558L164.995 16.9638Z" fill="white"/>
<path d="M165.355 23.6101C165.355 24.162 165.355 24.7138 165.331 25.2497L166.154 25.2737C166.17 24.7218 166.178 24.162 166.178 23.6101C166.178 23.2342 166.178 22.8503 166.17 22.4744L165.347 22.4904C165.347 22.8663 165.355 23.2422 165.355 23.6101Z" fill="white"/>
<path d="M163.638 37.5426L164.436 37.7426C164.668 36.8468 164.876 35.927 165.059 35.0073L164.253 34.8473C164.069 35.7511 163.861 36.6548 163.638 37.5426Z" fill="white"/>
<path d="M161.129 46.9803L160.386 46.6284C159.995 47.4601 159.58 48.2919 159.148 49.0917L159.867 49.4836C160.307 48.6678 160.73 47.8201 161.129 46.9803Z" fill="white"/>
<path d="M162.759 43.1012L161.992 42.8133C161.673 43.6771 161.321 44.5329 160.962 45.3727L161.713 45.7006C162.08 44.8528 162.44 43.973 162.759 43.1012Z" fill="white"/>
<path d="M164.436 12.8528L165.243 12.7168C165.091 11.8051 164.915 10.8773 164.731 9.96552L163.925 10.1335C164.109 11.0372 164.284 11.957 164.436 12.8528Z" fill="white"/>
<path d="M164.068 39.1022L163.278 38.8783C163.03 39.7581 162.751 40.6459 162.455 41.5176L163.23 41.7816C163.533 40.9018 163.813 40.006 164.068 39.1022Z" fill="white"/>
<path d="M148.638 63.7201L148.095 63.1122C147.416 63.7201 146.705 64.3279 145.986 64.9038L146.497 65.5436C147.224 64.9598 147.943 64.3439 148.638 63.7281V63.7201Z" fill="white"/>
<path d="M151.665 60.7928L151.074 60.2249C150.443 60.8888 149.78 61.5446 149.117 62.1765L149.676 62.7763C150.355 62.1365 151.026 61.4726 151.665 60.8008V60.7928Z" fill="white"/>
<path d="M138.375 71.0143L137.975 70.2944C137.177 70.7423 136.354 71.1742 135.531 71.5821L135.899 72.3179C136.737 71.902 137.568 71.4621 138.375 71.0143Z" fill="white"/>
<path d="M134.637 72.9338L134.286 72.19C133.455 72.5819 132.608 72.9578 131.762 73.3097L132.073 74.0695C132.936 73.7096 133.79 73.3337 134.637 72.9338Z" fill="white"/>
<path d="M141.969 68.8388L141.522 68.151C140.755 68.6548 139.973 69.1427 139.174 69.6066L139.589 70.3184C140.396 69.8465 141.195 69.3507 141.969 68.8388Z" fill="white"/>
<path d="M130.779 74.5894L130.483 73.8216C129.629 74.1575 128.758 74.4774 127.888 74.7733L128.151 75.5491C129.03 75.2452 129.916 74.9253 130.779 74.5894Z" fill="white"/>
<path d="M114.542 78.6923L114.438 77.8765C113.527 77.9965 112.609 78.0925 111.69 78.1804L111.762 78.9962C112.689 78.9083 113.623 78.8123 114.542 78.6923Z" fill="white"/>
<path d="M118.687 78.0365L118.535 77.2287C117.641 77.3967 116.722 77.5486 115.812 77.6846L115.931 78.5004C116.858 78.3644 117.784 78.2045 118.687 78.0365Z" fill="white"/>
<path d="M110.372 79.1082L110.316 78.2924C109.406 78.3564 108.479 78.4044 107.553 78.4364L107.585 79.2602C108.519 79.2282 109.454 79.1802 110.38 79.1082H110.372Z" fill="white"/>
<path d="M126.826 75.989L126.578 75.2052C125.708 75.4851 124.813 75.7491 123.927 75.989L124.142 76.7808C125.045 76.5329 125.947 76.2689 126.826 75.989Z" fill="white"/>
<path d="M154.445 57.6336L153.806 57.1137C153.231 57.8256 152.624 58.5294 152.009 59.2092L152.616 59.7611C153.239 59.0732 153.854 58.3534 154.445 57.6336Z" fill="white"/>
<path d="M156.96 54.2664L156.282 53.8026C155.762 54.5544 155.219 55.3062 154.66 56.034L155.307 56.5379C155.874 55.7941 156.433 55.0342 156.952 54.2664H156.96Z" fill="white"/>
<path d="M122.784 77.1327L122.584 76.3329C121.698 76.5569 120.795 76.7648 119.893 76.9488L120.06 77.7486C120.971 77.5566 121.889 77.3487 122.784 77.1247V77.1327Z" fill="white"/>
<path d="M143.127 68.055C143.894 67.5271 144.661 66.9673 145.396 66.4074L144.9 65.7516C144.174 66.3114 143.423 66.8553 142.664 67.3752L143.127 68.055Z" fill="white"/>
<path d="M164.429 8.55787C164.325 8.10998 164.221 7.66209 164.109 7.2142L163.311 7.41415C163.422 7.85404 163.526 8.30193 163.622 8.74182L164.421 8.55787H164.429Z" fill="white"/>
<path d="M143.359 51.931C153.031 39.902 156.793 23.5781 154.533 3.41516L153.718 3.50314C155.947 23.4422 152.249 39.5581 142.72 51.4112C133.335 63.0882 118.176 70.3104 98.8877 72.3179L98.9756 73.1337C108.608 72.134 117.242 69.8625 124.63 66.3754C132.225 62.8003 138.527 57.9375 143.359 51.923V51.931Z" fill="white"/>
<path d="M153.877 63.6721C160.019 57.3937 164.436 49.9875 167.008 41.6536C169.851 32.4479 170.346 22.3464 168.478 11.6451L167.671 11.7891C171.177 31.8081 166.065 50.0355 153.286 63.0963C140.843 75.8291 122.161 82.4194 105.7 79.8841L105.572 80.6919C107.944 81.0598 110.364 81.2357 112.808 81.2357C127.544 81.2357 143.039 74.7413 153.869 63.6641L153.877 63.6721Z" fill="white"/>
<path d="M170.394 13.2927L169.588 13.4367C173.094 33.4557 167.982 51.6831 155.211 64.7518C142.767 77.4846 124.086 84.075 107.625 81.5396L107.497 82.3474C109.869 82.7153 112.297 82.8913 114.733 82.8913C129.469 82.8913 144.964 76.3969 155.794 65.3197C161.936 59.0413 166.353 51.6351 168.925 43.3012C171.768 34.0955 172.263 23.994 170.394 13.2927Z" fill="white"/>
</g>
<path style="mix-blend-mode:multiply" opacity="0.7" d="M166.848 12.2769C166.832 12.2129 166.816 12.149 166.808 12.093C164.156 7.50212 161.185 5.46263 155.267 4.35891C149.388 1.56761 142.815 0 135.874 0C110.875 0 90.6123 20.2909 90.6123 45.3247C90.6123 55.914 94.2384 65.6476 100.308 73.3657C100.484 73.9575 102.185 77.7006 106.227 79.5801C114.166 86.4744 124.533 90.6573 135.874 90.6573C160.874 90.6573 181.136 70.3664 181.136 45.3327C181.136 32.2959 175.641 20.5549 166.848 12.2849V12.2769Z" fill="url(#paint3_radial_4988_14853)"/>
<g opacity="0.2">
<path style="mix-blend-mode:screen" opacity="0.45" d="M108.519 9.60561C119.956 0.247947 132.815 -2.28742 137.272 3.91103C141.697 10.1415 136.034 22.7623 124.613 32.112C113.199 41.4536 100.356 43.981 95.9077 37.7666C91.459 31.5521 97.1137 18.9393 108.535 9.60561H108.519Z" fill="url(#paint4_radial_4988_14853)"/>
<path style="mix-blend-mode:screen" opacity="0.45" d="M108.376 9.61362C117.321 2.29545 127.377 0.319942 130.859 5.16673C134.317 10.0375 129.893 19.915 120.955 27.2172C112.026 34.5274 101.986 36.5029 98.5039 31.6401C95.0215 26.7773 99.4463 16.9158 108.376 9.61362Z" fill="url(#paint5_radial_4988_14853)"/>
<path style="mix-blend-mode:screen" opacity="0.45" d="M108.295 11.3412C114.996 5.85454 122.536 4.37491 125.148 8.006C127.744 11.6611 124.421 19.0592 117.728 24.5379C111.035 30.0165 103.511 31.4961 100.899 27.849C98.2876 24.2099 101.61 16.8118 108.303 11.3412H108.295Z" fill="url(#paint6_radial_4988_14853)"/>
</g>
</g>
<defs>
<radialGradient id="paint0_radial_4988_14853" cx="0" cy="0" r="1" gradientTransform="matrix(0.0309572 -6.57836 37.7874 0.178316 141.813 89.6788)" gradientUnits="userSpaceOnUse">
<stop offset="0.13" stop-color="#7A7A7A"/>
<stop offset="0.17" stop-color="#878787"/>
<stop offset="0.35" stop-color="#B2B2B2"/>
<stop offset="0.51" stop-color="#D3D3D3"/>
<stop offset="0.67" stop-color="#EBEBEB"/>
<stop offset="0.81" stop-color="#FAFAFA"/>
<stop offset="0.94" stop-color="white"/>
</radialGradient>
<radialGradient id="paint1_radial_4988_14853" cx="0" cy="0" r="1" gradientUnits="userSpaceOnUse" gradientTransform="translate(118.063 28.9208) scale(70.7804 70.8783)">
<stop offset="0.15" stop-color="#FA232B"/>
<stop offset="0.31" stop-color="#F52129"/>
<stop offset="0.47" stop-color="#E91D26"/>
<stop offset="0.64" stop-color="#D51720"/>
<stop offset="0.8" stop-color="#B80E18"/>
<stop offset="0.97" stop-color="#94020D"/>
<stop offset="1" stop-color="#8C000B"/>
</radialGradient>
<radialGradient id="paint2_radial_4988_14853" cx="0" cy="0" r="1" gradientUnits="userSpaceOnUse" gradientTransform="translate(134.293 42.2134) scale(58.6482 58.7293)">
<stop offset="0.15" stop-color="#FA232B"/>
<stop offset="0.31" stop-color="#F52129"/>
<stop offset="0.47" stop-color="#E91D26"/>
<stop offset="0.64" stop-color="#D51720"/>
<stop offset="0.8" stop-color="#B80E18"/>
<stop offset="0.97" stop-color="#94020D"/>
<stop offset="1" stop-color="#8C000B"/>
</radialGradient>
<radialGradient id="paint3_radial_4988_14853" cx="0" cy="0" r="1" gradientUnits="userSpaceOnUse" gradientTransform="translate(118.063 28.9208) scale(70.7804 70.8783)">
<stop offset="0.15" stop-color="white"/>
<stop offset="0.47" stop-color="#FDFDFD"/>
<stop offset="0.58" stop-color="#F6F6F6"/>
<stop offset="0.66" stop-color="#EAEAEA"/>
<stop offset="0.73" stop-color="#D9D9D9"/>
<stop offset="0.78" stop-color="#C3C3C3"/>
<stop offset="0.83" stop-color="#A8A8A8"/>
<stop offset="0.88" stop-color="#878787"/>
<stop offset="0.92" stop-color="#626262"/>
<stop offset="0.96" stop-color="#373737"/>
<stop offset="0.99" stop-color="#090909"/>
<stop offset="1"/>
</radialGradient>
<radialGradient id="paint4_radial_4988_14853" cx="0" cy="0" r="1" gradientTransform="matrix(-6.86464 -9.60523 23.9799 -17.1853 29.659 58.3741)" gradientUnits="userSpaceOnUse">
<stop offset="0.25" stop-color="white"/>
<stop offset="0.41" stop-color="#BCBCBC"/>
<stop offset="0.63" stop-color="#6C6C6C"/>
<stop offset="0.8" stop-color="#323232"/>
<stop offset="0.93" stop-color="#0D0D0D"/>
<stop offset="1"/>
</radialGradient>
<radialGradient id="paint5_radial_4988_14853" cx="0" cy="0" r="1" gradientTransform="matrix(-5.36911 -7.51263 18.7556 -13.4413 27.9995 56.3044)" gradientUnits="userSpaceOnUse">
<stop offset="0.25" stop-color="white"/>
<stop offset="0.41" stop-color="#BCBCBC"/>
<stop offset="0.63" stop-color="#6C6C6C"/>
<stop offset="0.8" stop-color="#323232"/>
<stop offset="0.93" stop-color="#0D0D0D"/>
<stop offset="1"/>
</radialGradient>
<radialGradient id="paint6_radial_4988_14853" cx="0" cy="0" r="1" gradientTransform="matrix(-4.0239 -5.63038 14.0565 -10.0737 26.3268 56.0048)" gradientUnits="userSpaceOnUse">
<stop offset="0.25" stop-color="white"/>
<stop offset="0.41" stop-color="#BCBCBC"/>
<stop offset="0.63" stop-color="#6C6C6C"/>
<stop offset="0.8" stop-color="#323232"/>
<stop offset="0.93" stop-color="#0D0D0D"/>
<stop offset="1"/>
</radialGradient>
<clipPath id="clip0_4988_14853">
<rect width="92.0816" height="96" fill="white" transform="translate(90.6123)"/>
</clipPath>
</defs>
</svg>
