<svg width="779" height="213" viewBox="0 0 779 213" fill="none" xmlns="http://www.w3.org/2000/svg">
<path d="M240.67 18.6499C240.67 18.6499 215 19.9999 216.03 24.0499C217.06 28.0999 240.92 28.0999 240.92 28.0999C240.92 28.0999 245.54 32.9599 252.98 32.9599C260.42 32.9599 264.27 31.3399 264.27 31.3399C264.27 31.3399 268.89 34.0399 274.28 34.3099C279.67 34.5799 284.29 31.3399 284.29 31.3399C284.29 31.3399 288.65 34.3099 296.87 34.3099C305.09 34.3099 309.7 29.1799 311.24 29.1799C312.78 29.1799 333.31 29.4499 333.31 26.2099C333.31 22.9699 319.96 22.6999 319.96 22.6999C319.96 22.6999 316.88 14.5999 309.95 12.9799C303.02 11.3599 300.2 14.8699 299.43 14.5999C298.66 14.3299 295.32 3.52987 284.55 3.25987C273.77 2.98987 270.95 9.19987 270.95 9.19987C270.95 9.19987 264.79 -2.68013 252.99 0.559872C241.18 3.79987 240.67 18.6499 240.67 18.6499Z" fill="#E3F0FA"/>
<path d="M309.96 12.98C303.03 11.36 300.21 14.87 299.44 14.6C298.67 14.33 295.33 3.52999 284.56 3.25999C273.78 2.98999 270.96 9.19999 270.96 9.19999C270.96 9.19999 264.8 -2.68001 253 0.559994C246.12 2.44999 243.08 8.27999 241.73 12.82C243.94 9.86999 248 5.83999 253.83 5.74999C263.05 5.59999 265.6 17.24 265.6 17.24C265.6 17.24 267.16 13.21 270.71 12.76C274.26 12.31 275.82 14.55 275.82 14.55C275.82 14.55 278.23 7.68999 285.61 8.12999C292.99 8.57999 294.12 17.08 294.12 17.08C294.12 17.08 295.82 16.18 297.95 16.48C300.08 16.78 301.78 20.06 301.78 20.06C301.78 20.06 304.76 15.88 310.01 15.88C312.97 15.88 315.25 16.64 316.68 17.3C315.07 15.43 312.87 13.64 309.99 12.96L309.96 12.98Z" fill="white"/>
<path d="M313.39 24.7C313.39 24.7 310.98 28.13 307.01 28.58C303.04 29.03 301.76 25.89 301.76 25.89C301.76 25.89 300.91 31.86 293.82 31.56C286.73 31.26 284.46 24.25 284.46 24.25C284.46 24.25 282.47 32.01 272.55 31.26C262.62 30.51 262.34 24.4 262.34 24.4C262.34 24.4 256.52 31.12 249.01 29.77C241.49 28.43 239.22 23.5 239.22 23.5C239.22 23.5 229.43 26.19 222.91 24.69C220.6 24.16 219.46 22.97 218.93 21.66C216.99 22.32 215.81 23.11 216.04 24.04C217.07 28.09 240.93 28.09 240.93 28.09C240.93 28.09 245.55 32.95 252.99 32.95C260.43 32.95 264.28 31.33 264.28 31.33C264.28 31.33 268.9 34.03 274.29 34.3C279.68 34.57 284.3 31.33 284.3 31.33C284.3 31.33 288.66 34.3 296.88 34.3C305.1 34.3 309.71 29.17 311.25 29.17C312.79 29.17 333.32 29.44 333.32 26.2C333.32 25.65 332.92 25.18 332.28 24.79C329.67 25.82 325.46 27.08 320.49 27.08C312.12 27.08 313.4 24.69 313.4 24.69L313.39 24.7Z" fill="#BEDEF7"/>
<path d="M585.429 200.511C585.429 200.511 568.66 200.861 572.6 204.661C576.55 208.471 589.05 206.741 589.05 206.741C589.05 206.741 593.649 212.971 601.549 212.971C609.449 212.971 613.059 210.201 613.059 210.201C613.059 210.201 618.569 213.221 626.869 212.621C633.899 212.121 637.719 207.771 637.719 207.771C637.719 207.771 661.4 206.391 654.82 203.271C648.24 200.161 639.689 201.191 639.689 201.191C639.689 201.191 640.02 183.541 624.559 179.731C607.699 175.581 601.54 190.461 601.54 190.461C601.54 190.461 596.379 186.941 591.009 189.771C584.429 193.231 585.419 200.501 585.419 200.501L585.429 200.511Z" fill="#E3F0FA"/>
<path d="M624.569 179.741C607.709 175.591 601.549 190.471 601.549 190.471C601.549 190.471 596.389 186.951 591.019 189.781C586.569 192.121 585.579 196.211 585.409 198.601C586.779 196.811 589.719 193.521 593.399 192.721C598.519 191.611 602.039 197.181 602.039 197.181C602.039 197.181 604.689 186.781 613.329 184.371C621.969 181.961 626.909 192.171 626.909 192.171C626.909 192.171 629.199 188.091 632.909 189.011C635.079 189.551 637.119 191.431 638.479 193.521C636.879 188.261 633.169 181.851 624.569 179.741Z" fill="white"/>
<path d="M654.83 203.271C654.29 203.011 653.74 202.801 653.18 202.591C651.13 204.201 647.98 205.811 643.68 205.521C635.39 204.961 635.39 202.551 635.39 202.551C635.39 202.551 633.1 209.601 624.45 208.861C615.81 208.121 613.34 201.431 613.34 201.431C613.34 201.431 610.87 209.971 601.7 209.781C592.53 209.591 588.64 202.731 588.64 202.731C588.64 202.731 581.05 207.001 576.47 205.141C574.75 204.451 573.93 203.281 573.56 202.101C572.09 202.701 571.45 203.521 572.61 204.641C576.56 208.451 589.06 206.721 589.06 206.721C589.06 206.721 593.66 212.951 601.56 212.951C609.46 212.951 613.07 210.181 613.07 210.181C613.07 210.181 618.58 213.201 626.88 212.601C633.91 212.101 637.73 207.751 637.73 207.751C637.73 207.751 661.41 206.371 654.83 203.251V203.271Z" fill="#BEDEF7"/>
<path d="M601.369 54.7813C601.369 54.7813 584.68 55.8151 585.006 59.9502C585.332 64.0853 608.242 64.7745 608.242 64.7745C608.242 64.7745 612.173 70.9772 619.698 72.3555C627.223 73.7339 633.77 69.5988 633.77 69.5988C633.77 69.5988 634.543 72.6629 640.42 73.7712C647.498 75.1123 650.786 70.6326 650.786 70.6326C650.786 70.6326 656.02 74.7677 660.602 74.4231C665.184 74.0785 668.127 70.9772 668.127 70.9772C668.127 70.9772 672.709 75.8015 688.095 75.8015C703.481 75.8015 707.075 71.3218 707.075 71.3218C707.075 71.3218 716.24 74.4231 724.426 72.7001C732.613 70.9772 736.208 68.2204 736.208 68.2204C736.208 68.2204 742.038 72.8212 750.28 70.288C756.324 68.4346 758.792 65.8083 758.792 65.8083C758.792 65.8083 778.108 65.8083 778.108 62.0178C778.108 58.2272 762.397 57.5381 762.397 57.5381C762.397 57.5381 763.635 8.47543 728.03 1.05271C695.769 -5.67151 684.332 22.017 684.332 22.017C684.332 22.017 682.339 14.9482 674.712 15.5256C669.161 15.9447 666.823 22.7528 666.823 22.7528C666.823 22.7528 661.813 15.209 651.67 19.3441C641.519 23.4792 643.261 31.7029 643.261 31.7029C643.261 31.7029 634.748 18.9622 621.98 24.811C609.211 30.6691 612.489 44.0989 612.489 44.0989C612.489 44.0989 607.944 40.1687 603.213 44.9278C599.218 48.9418 601.36 54.7813 601.36 54.7813H601.369Z" fill="#E3F0FA"/>
<path d="M668.015 45.8405C668.015 45.8405 669.617 34.6179 678.315 33.4817C687.014 32.3362 689.994 38.5202 689.994 38.5202C689.994 38.5202 694.576 30.0451 701.673 30.2779C708.77 30.5108 711.061 37.1419 711.061 37.1419C711.061 37.1419 716.789 32.1033 722.74 34.6273C728.691 37.1419 729.38 43.1024 729.38 43.1024C729.38 43.1024 725.487 38.7531 720.905 37.6075C716.323 36.462 709.003 44.7043 709.003 44.7043C709.003 44.7043 707.401 36.2291 700.527 35.5493C693.664 34.8601 689.994 44.2479 689.994 44.2479C689.994 44.2479 685.645 35.0929 678.315 36.9183C670.986 38.7531 668.015 45.8498 668.015 45.8498V45.8405Z" fill="white"/>
<path d="M750.308 70.288C756.352 68.4346 758.82 65.8083 758.82 65.8083C758.82 65.8083 778.136 65.8083 778.136 62.0178C778.136 61.4683 777.791 60.984 777.223 60.5556C775.705 61.757 772.995 63.303 769.139 63.1354C762.89 62.8746 758.131 59.9781 758.131 59.9781C758.131 59.9781 757.134 64.7186 748.873 65.5009C740.622 66.2926 737.12 57.0817 737.12 57.0817C737.12 57.0817 736.365 65.7617 723.113 67.345C709.86 68.9283 705.855 58.3949 705.855 58.3949C705.855 58.3949 703.853 69.7106 688.094 71.5546C672.336 73.3986 666.832 59.9781 666.832 59.9781C666.832 59.9781 664.83 69.9806 657.826 68.3974C650.823 66.8141 647.321 62.0829 647.321 62.0829C647.321 62.0829 649.072 69.9807 642.822 69.7106C636.573 69.4498 632.066 64.7093 632.066 64.7093C632.066 64.7093 630.063 68.9189 622.063 68.9189C614.063 68.9189 604.554 59.9688 604.554 59.9688C604.554 59.9688 601.052 61.5521 592.801 60.7605C589.299 60.4252 587.24 59.3262 586.03 58.1807C585.341 58.6929 584.949 59.2796 585.005 59.9409C585.331 64.076 608.242 64.7652 608.242 64.7652C608.242 64.7652 612.172 70.9679 619.697 72.3462C627.223 73.7246 633.77 69.5895 633.77 69.5895C633.77 69.5895 634.543 72.6536 640.42 73.7619C647.498 75.103 650.785 70.6233 650.785 70.6233C650.785 70.6233 656.019 74.7584 660.602 74.4138C665.184 74.0692 668.127 70.9679 668.127 70.9679C668.127 70.9679 672.709 75.7922 688.094 75.7922C703.48 75.7922 707.075 71.3125 707.075 71.3125C707.075 71.3125 716.239 74.4138 724.426 72.6908C732.612 70.9679 736.207 68.2111 736.207 68.2111C736.207 68.2111 742.037 72.8119 750.28 70.2787L750.308 70.288Z" fill="#BEDEF7"/>
<path d="M758.866 33.016C754.843 19.5583 746.265 4.86186 728.048 1.06202C695.787 -5.6622 684.35 22.0263 684.35 22.0263C684.35 22.0263 682.357 14.9575 674.73 15.5349C669.179 15.954 666.841 22.7621 666.841 22.7621C666.841 22.7621 661.831 15.2183 651.688 19.3534C641.537 23.4885 643.278 31.7122 643.278 31.7122C643.278 31.7122 634.766 18.9716 621.997 24.8203C615.45 27.8285 613.122 32.8205 612.414 36.9835C614.938 33.7052 619.492 28.8251 624.577 28.1359C632.335 27.0835 640.587 39.9824 640.587 39.9824C640.587 39.9824 641.835 36.2943 644.592 35.7728C647.348 35.2512 649.844 37.3561 649.844 37.3561C649.844 37.3561 646.594 27.8844 655.6 25.7796C664.606 23.6748 668.359 27.8844 668.359 27.8844C668.359 27.8844 670.865 21.57 677.114 22.3616C683.363 23.1532 687.116 28.1545 687.116 28.1545C687.116 28.1545 697.37 10.5244 716.127 12.0983C734.884 13.6816 737.883 25.7796 737.883 25.7796C737.883 25.7796 742.884 21.57 749.143 23.9356C752.98 25.3884 756.435 28.9275 758.885 33.0254L758.866 33.016Z" fill="white"/>
<path d="M12.8071 118.52C12.8071 118.52 -2.61285 119.32 0.387147 123.67C3.38715 128.02 17.3071 126.04 17.3071 126.04C17.3071 126.04 21.0671 132.77 30.4671 133.95C39.8671 135.14 46.2571 129.6 46.2571 129.6C46.2571 129.6 51.8971 134.35 60.5471 134.35C69.1972 134.35 74.0771 130.79 74.0771 130.79C74.0771 130.79 80.0972 135.54 88.7372 135.54C97.3772 135.54 101.897 131.98 101.897 131.98C101.897 131.98 106.787 135.14 114.307 134.75C121.827 134.35 124.457 131.98 124.457 131.98C124.457 131.98 129.347 133.56 136.487 131.98C143.627 130.4 145.137 127.23 145.137 127.23C145.137 127.23 169.577 126.44 165.817 123.27C162.057 120.11 150.777 119.71 150.777 119.71C150.777 119.71 146.267 107.45 137.997 106.26C129.727 105.07 127.097 110.22 127.097 110.22C127.097 110.22 124.057 96.75 114.317 94C108.677 92.41 103.037 94.4 103.037 94.4C103.037 94.4 100.827 81.34 87.9971 75.81C77.7371 71.39 70.7071 77 70.7071 77C70.7071 77 66.6371 67 56.4771 67C46.3172 67 41.4771 76.19 41.4771 76.19C41.4771 76.19 34.0671 71.03 25.5871 77.8C14.3271 86.78 21.8271 98.77 21.8271 98.77C21.8271 98.77 16.9371 98.77 13.5571 104.7C10.1771 110.63 12.8171 118.54 12.8171 118.54L12.8071 118.52Z" fill="#E3F0FA"/>
<path d="M33.9376 109.72C33.9376 109.72 32.3376 99.03 41.1576 96.08C49.9776 93.14 51.3176 100.89 51.3176 100.89C51.3176 100.89 54.7976 94.74 59.3376 94.47C63.8876 94.2 65.4876 99.28 65.4876 99.28C65.4876 99.28 70.2976 96.07 74.3076 97.68C78.3176 99.28 78.8576 107.57 78.8576 107.57C78.8576 107.57 75.6476 101.15 72.1776 100.35C68.7076 99.55 64.6876 104.9 64.6876 104.9C64.6876 104.9 62.8176 98.75 58.2676 99.55C53.7176 100.35 51.5876 107.3 51.5876 107.3C51.5876 107.3 48.3776 99.01 41.9576 100.62C35.5376 102.22 33.9376 109.71 33.9376 109.71V109.72Z" fill="white"/>
<path d="M157.037 120.33C153.687 119.82 150.787 119.71 150.787 119.71C150.787 119.71 146.277 107.45 138.007 106.26C129.737 105.07 127.107 110.22 127.107 110.22C127.107 110.22 124.067 96.75 114.327 94C108.687 92.41 103.047 94.4 103.047 94.4C103.047 94.4 100.837 81.34 88.0072 75.81C77.7472 71.39 70.7172 77 70.7172 77C70.7172 77 66.6472 67 56.4872 67C46.3272 67 41.4872 76.19 41.4872 76.19C41.4872 76.19 34.0772 71.03 25.5972 77.8C14.3372 86.78 21.8372 98.77 21.8372 98.77C21.8372 98.77 16.9472 98.77 13.5672 104.7C11.8272 107.75 11.6872 111.31 11.9472 114.06C12.6672 111.22 14.0972 107.46 16.8172 105.67C21.4872 102.6 25.5772 105.36 25.5772 105.36C25.5772 105.36 20.3172 86.92 29.9572 82.92C39.5972 78.92 45.7272 88.45 45.7272 88.45C45.7272 88.45 48.6472 79.23 56.8272 78.62C65.0072 78.01 68.2172 86 68.2172 86C68.2172 86 70.8472 82.31 76.3972 84.46C81.9472 86.61 82.2372 93.07 82.2372 93.07C82.2372 93.07 86.6172 89.69 92.4572 91.84C98.2972 93.99 100.927 105.06 100.927 105.06C100.927 105.06 108.517 96.76 115.537 99.22C122.547 101.68 124.597 114.28 124.597 114.28C124.597 114.28 131.607 108.13 138.327 110.59C145.047 113.05 148.847 122.27 148.847 122.27C148.847 122.27 152.647 121.04 157.047 120.36L157.037 120.33Z" fill="white"/>
<path d="M157.308 124.7C148.838 124.7 143.288 123.47 143.288 123.47C143.288 123.47 140.658 128.08 133.068 128.39C125.478 128.7 123.138 121.32 123.138 121.32C123.138 121.32 119.338 130.54 112.038 130.54C104.738 130.54 101.818 123.78 101.818 123.78C101.818 123.78 99.7775 133.31 88.0875 132.69C76.4075 132.08 74.3575 119.17 74.3575 119.17C74.3575 119.17 71.7275 129.62 59.1675 129.31C46.6075 129 45.4375 121.32 45.4375 121.32C45.4375 121.32 44.2675 128.7 34.6275 129.31C24.9875 129.92 19.1475 122.55 19.1475 122.55C19.1475 122.55 15.0575 125.32 7.16751 123.78C3.76751 123.12 2.37751 121.82 1.89751 120.57C0.297511 121.32 -0.542489 122.32 0.397511 123.67C3.40751 128.02 17.3175 126.04 17.3175 126.04C17.3175 126.04 21.0775 132.76 30.4775 133.95C39.8775 135.14 46.2675 129.6 46.2675 129.6C46.2675 129.6 51.9075 134.35 60.5575 134.35C69.2075 134.35 74.0975 130.79 74.0975 130.79C74.0975 130.79 80.1175 135.54 88.7575 135.54C97.3975 135.54 101.918 131.98 101.918 131.98C101.918 131.98 106.808 135.14 114.328 134.75C121.848 134.35 124.478 131.98 124.478 131.98C124.478 131.98 129.368 133.56 136.508 131.98C143.648 130.4 145.158 127.23 145.158 127.23C145.158 127.23 164.848 126.59 166.148 124.17C163.708 124.46 160.678 124.7 157.318 124.7H157.308Z" fill="#BEDEF7"/>
</svg>
