<svg width="11" height="7" viewBox="0 0 11 7" fill="none" xmlns="http://www.w3.org/2000/svg">
<path d="M0.831628 0L10.1684 0C10.3335 0.000701429 10.4948 0.050993 10.6317 0.144516C10.7687 0.238039 10.8752 0.370593 10.9377 0.525416C11.0003 0.680239 11.0162 0.850379 10.9833 1.01432C10.9504 1.17826 10.8702 1.32865 10.753 1.44645L6.09294 6.16646C6.01531 6.24574 5.92294 6.30867 5.82117 6.35161C5.7194 6.39456 5.61025 6.41667 5.5 6.41667C5.38975 6.41667 5.2806 6.39456 5.17883 6.35161C5.07706 6.30867 4.98469 6.24574 4.90706 6.16646L0.247038 1.44645C0.129767 1.32865 0.0496192 1.17826 0.0167275 1.01432C-0.0161642 0.850379 -0.000322459 0.680239 0.0622501 0.525416C0.124823 0.370593 0.231316 0.238039 0.368263 0.144516C0.505211 0.050993 0.666462 0.000701429 0.831628 0Z" fill="#3747DE"/>
</svg>
