<svg width="104" height="104" viewBox="0 0 104 104" fill="none" xmlns="http://www.w3.org/2000/svg">
<path d="M16.064 2C35.5875 2 55.1111 2 74.6346 2C74.9271 2.12482 75.2195 2.24821 75.5112 2.37445C77.223 3.11765 78.28 4.39506 78.5503 6.24878C78.8314 8.17738 78.2608 9.91484 76.616 10.9319C75.3971 11.6858 75.5269 12.5474 75.6631 13.6793C78.2879 13.6793 80.8505 13.6701 83.4132 13.6865C83.9931 13.69 84.5958 13.7 85.1492 13.8505C87.769 14.563 89.1826 17.334 88.3952 20.2426C87.0129 25.3494 85.5914 30.4455 84.1928 35.5473C83.6657 37.4716 82.4175 38.6592 80.5324 39.2405C77.9897 40.0243 75.4534 40.8289 72.9157 41.6298C72.7053 41.6962 72.5077 41.8053 72.1205 41.9743C72.4493 42.0043 72.5455 42.0185 72.6418 42.0207C85.9852 42.3573 97.3293 51.1766 100.873 64.0335C101.37 65.8358 101.609 67.7095 101.967 69.5497V74.2357C101.888 74.7456 101.801 75.2549 101.731 75.7663C99.7279 90.6238 87.4551 101.708 72.4393 101.907C59.4597 102.08 46.4759 101.954 33.4942 101.959C28.6791 101.96 23.8633 101.963 19.0482 101.956C17.6067 101.954 17.0297 101.38 17.0154 99.958C17.0054 98.9495 16.9976 97.9402 17.0197 96.9324C17.0618 94.9746 17.959 93.4953 19.678 92.5931C20.2557 92.2899 20.3563 91.9397 20.3513 91.372C20.3284 88.7366 20.4547 86.0954 20.3149 83.4671C20.1102 79.6199 21.807 78.3988 25.1357 78.6299C26.2854 78.7098 27.4459 78.6428 28.6841 78.6428C28.6841 77.3333 28.6299 76.1949 28.6948 75.063C28.8531 72.312 30.9165 70.3685 33.6646 70.3207C34.201 70.3114 34.7373 70.3192 35.2473 70.3192C35.2965 70.0632 35.33 69.9698 35.33 69.8756C35.335 65.7438 35.3529 61.6113 35.3058 57.4795C35.3022 57.1614 34.8985 56.7063 34.5704 56.5551C28.5065 53.7656 24.063 49.3521 21.1465 43.3602C20.9497 42.9565 20.5025 42.5414 20.0824 42.4008C17.0646 41.3916 14.0526 40.3439 10.9814 39.5229C8.34099 38.8175 6.83962 37.3147 6.17488 34.6408C4.93812 29.6631 3.49666 24.7346 2.14506 19.7847C1.45678 17.2648 3.23989 13.5003 7.02292 13.6701C8.35454 13.73 9.69044 13.6793 11.0242 13.6793C12.348 13.6793 13.6718 13.6793 14.9713 13.6793C15.2238 12.4561 15.1203 11.6452 13.9842 10.8963C12.3095 9.79287 11.7225 8.02475 12.1212 6.01056C12.5555 3.81449 14.0662 2.66474 16.064 2ZM18.449 12.0303C18.4334 12.3905 18.3891 12.7093 18.4098 13.0239C18.6666 16.8818 18.7907 20.7561 19.23 24.5933C19.9055 30.4961 21.3434 36.2235 24.0166 41.577C28.5885 50.7329 35.8393 55.5651 46.2391 55.3027C46.8032 55.2884 47.1798 55.1493 47.5322 54.66C51.9871 48.4684 57.9419 44.5135 65.3604 42.7332C65.7612 42.6369 66.2448 42.2696 66.4074 41.903C67.3161 39.8589 68.2654 37.8183 68.9651 35.6985C71.4486 28.1802 72.1675 20.3959 72.2517 12.5289C72.2531 12.3755 72.2082 12.2222 72.1789 12.0303H18.449ZM90.3138 91.3934C88.9637 90.7579 88.5621 90.1031 88.816 89.2016C89.087 88.2402 89.8267 87.8621 91.0534 88.0568C91.3423 88.1025 91.644 88.1061 91.9186 88.1959C92.6853 88.4456 93.1568 88.1817 93.6147 87.5219C97.3535 82.1391 99.0332 76.2092 98.489 69.6609C97.3549 56.0088 85.9338 45.4492 72.2317 45.3044C70.6761 45.288 69.5984 45.5669 69.2119 47.2074C69.1548 47.4499 69.0036 47.6888 68.8431 47.8864C68.0821 48.82 66.5636 48.6481 66.0986 47.5433C65.9245 47.1282 65.9595 46.6254 65.8882 46.0726C65.3104 46.2245 64.7291 46.4178 64.1329 46.5255C63.2691 46.681 62.8447 47.1917 62.553 47.9998C59.4026 56.727 59.4347 65.4243 63.1115 73.9518C67.5514 84.2496 75.3001 90.9034 86.08 94.0067C86.3589 94.0866 86.7712 94.1137 86.9773 93.9646C88.0778 93.1715 89.132 92.3149 90.3138 91.3934ZM51.619 54.9175C45.4894 61.6919 42.9624 73.4254 48.0486 83.7453C53.375 94.553 64.2819 98.8589 71.4329 98.5415C72.0677 97.8582 72.4393 97.1949 72.9977 96.9424C73.4278 96.7477 74.1125 97.0037 74.646 97.1771C75.4356 97.4338 76.2458 98.1528 76.9498 98.0436C78.785 97.7584 80.5667 97.1307 82.3697 96.6393C82.3597 96.5494 82.3498 96.4595 82.3405 96.3697C72.8251 92.807 65.6314 86.5883 61.0659 77.5109C56.4841 68.4013 55.8072 58.8831 58.7065 48.8735C56.7644 50.1231 54.8008 50.8913 54.5148 53.4411C54.308 55.2905 53.3265 55.6743 51.6198 54.9161L51.619 54.9175ZM49.4808 91.9319C48.4002 90.3963 47.3018 89.0183 46.411 87.5176C45.5201 86.0163 44.7805 84.415 44.0886 82.8088C43.8062 82.1526 43.4852 81.9636 42.8084 81.9665C36.7601 81.9907 30.7111 81.98 24.6621 81.9829C24.3518 81.9829 24.0409 82.02 23.7456 82.0385V91.9319H49.4808ZM45.2519 8.65311C54.4535 8.65311 63.6557 8.65312 72.8572 8.65169C73.2146 8.65169 73.5819 8.68521 73.9271 8.61603C74.7109 8.45983 75.196 7.9734 75.2659 7.15745C75.3343 6.35505 75.0034 5.74095 74.2317 5.47634C73.8451 5.34368 73.4043 5.33084 72.9885 5.33084C54.5526 5.32442 36.1167 5.32513 17.6802 5.32656C17.3556 5.32656 17.0233 5.30659 16.7073 5.36436C15.8999 5.512 15.3122 6.2445 15.3293 7.02693C15.3479 7.85856 15.9976 8.55183 16.8664 8.63742C17.1887 8.66952 17.5161 8.6524 17.8414 8.6524C26.978 8.6524 36.1146 8.6524 45.2512 8.6524L45.2519 8.65311ZM15.1781 17.0152C12.2717 17.0152 9.47718 17.0002 6.68342 17.0237C5.78616 17.0316 5.45379 17.7141 5.37605 18.4595C5.32826 18.9238 5.47447 19.4223 5.60143 19.8874C6.81394 24.3366 8.12916 28.7601 9.22256 33.2378C9.67261 35.0808 10.495 36.2021 12.4065 36.4545C12.8494 36.513 13.2695 36.7327 13.7039 36.8682C15.4477 37.4124 17.193 37.9524 19.1238 38.5522C16.7408 31.444 15.452 24.3473 15.1781 17.0152ZM75.4627 17.008C75.2095 24.3901 73.8864 31.494 71.5477 38.565C74.1582 37.7391 76.5212 36.9153 78.9305 36.2605C80.2215 35.9096 80.8612 35.2392 81.1993 33.9461C82.4468 29.1702 83.8048 24.4229 85.1107 19.662C85.6257 17.7847 85.0387 17.0102 83.1365 17.0087C82.7463 17.0087 82.3555 17.0087 81.9653 17.0087C79.8263 17.0087 77.6873 17.0087 75.4634 17.0087L75.4627 17.008ZM57.9476 98.5907C56.4883 97.615 55.186 96.7006 53.8351 95.8647C53.3722 95.578 52.7881 95.3326 52.2581 95.3305C43.9631 95.2977 35.6674 95.3069 27.3717 95.3077C25.615 95.3077 23.8583 95.3084 22.1016 95.3091C21.205 95.3091 20.5638 95.7306 20.4012 96.6036C20.2821 97.2462 20.3777 97.9281 20.3777 98.5914H57.9476V98.5907ZM42.0773 70.2822C42.3284 66.2074 43.3476 62.3745 45.0694 58.7576C42.9047 58.5144 40.847 58.2833 38.7465 58.0472V70.2822H42.0766H42.0773ZM42.0145 73.6515C39.1737 73.6515 36.3799 73.6287 33.5869 73.6651C32.6989 73.6765 32.0983 74.2128 32.0463 75.1187C31.9807 76.247 32.0306 77.3825 32.0306 78.5679H42.6864C42.461 76.9203 42.2471 75.3505 42.0153 73.6515H42.0145Z" fill="#717171" stroke="#717171" stroke-width="0.5"/>
<path d="M24.345 23.6733C25.2465 23.6733 25.7858 24.2718 26.0411 25.353C26.7943 28.5384 27.4476 31.7579 28.4076 34.8812C29.4547 38.2898 31.1864 41.3803 33.6542 44.0164C34.4452 44.8616 34.4545 45.8573 33.7541 46.5256C33.0273 47.2196 32.0095 47.119 31.185 46.2374C27.8192 42.637 25.8086 38.2955 24.4869 33.6252C23.7723 31.101 23.2908 28.5091 22.7588 25.9365C22.487 24.6241 23.2038 23.6733 24.3443 23.6733H24.345Z" fill="#717171"/>
<path d="M21.8838 17.7261C21.8838 17.4344 21.8624 17.1405 21.8881 16.8502C21.9637 15.9815 22.4887 15.4851 23.3089 15.3624C24.1035 15.244 24.8188 15.5935 24.995 16.3595C25.2018 17.2575 25.2717 18.2318 25.1605 19.1433C25.0663 19.9086 24.3773 20.3408 23.5792 20.3152C22.7419 20.2888 22.1813 19.8059 21.9908 18.9857C21.8967 18.5798 21.9174 18.1476 21.8846 17.7261H21.8838Z" fill="#717171"/>
<path d="M76.3401 81.1628C75.9578 81.5893 75.6433 82.2212 75.1618 82.3988C74.6783 82.5771 73.7903 82.5186 73.4914 82.1891C71.9708 80.5137 70.5407 78.7492 69.1706 76.9468C68.6442 76.2543 68.9652 75.2907 69.6663 74.8078C70.366 74.3256 71.2875 74.4184 71.861 75.1045C73.1904 76.6957 74.4992 78.3055 75.7873 79.931C76.0156 80.2192 76.1033 80.62 76.3408 81.1635L76.3401 81.1628Z" fill="#717171"/>
<path d="M86.1787 87.4233C86.1922 88.8976 85.0938 89.8091 84.0696 89.3205C82.0604 88.3619 80.1104 87.2699 78.1889 86.143C77.4322 85.6994 77.3288 84.7001 77.766 83.984C78.2317 83.2216 79.1276 82.962 79.9699 83.4106C81.768 84.3678 83.5718 85.3185 85.3221 86.3577C85.7614 86.6187 86.0089 87.2036 86.1787 87.4233Z" fill="#717171"/>
<path d="M69.3557 70.9847C69.3029 71.5781 68.9184 72.1302 68.141 72.3563C67.3465 72.5874 66.5762 72.3256 66.3258 71.6138C65.5655 69.4498 64.8943 67.2488 64.3173 65.0284C64.1069 64.2189 64.6975 63.5891 65.4977 63.3623C66.3073 63.1334 67.0961 63.403 67.3686 64.1911C68.0989 66.3001 68.7016 68.4534 69.3528 70.5896C69.3706 70.6488 69.3549 70.7187 69.3549 70.9847H69.3557Z" fill="#717171"/>
<path d="M65.1621 51.7979C65.3871 51.6003 65.6737 51.5118 66.0107 51.5664C66.3949 51.6284 66.6279 51.7966 66.7695 52.0293C66.9214 52.2789 67.0064 52.6667 66.9512 53.2236C66.8642 54.0975 66.7845 54.9724 66.71 55.8467L66.4971 58.4688C66.4573 58.9754 66.2942 59.3364 66.0811 59.5605C65.8755 59.7765 65.5898 59.9015 65.2119 59.8887C64.8314 59.8756 64.5998 59.7479 64.4502 59.5557C64.287 59.3458 64.1663 58.9889 64.166 58.4248V56.9229L64.1523 56.9199C64.3109 55.5581 64.4522 54.217 64.6514 52.876C64.7292 52.3542 64.9298 52.0019 65.1621 51.7979Z" fill="#717171" stroke="#717171"/>
<path d="M50.3171 63.3889C50.3171 62.6735 50.2871 61.9567 50.3242 61.2434C50.3799 60.1757 51.0917 59.4546 52.0175 59.4675C52.914 59.4796 53.5659 60.1671 53.6408 61.2013C53.812 63.5657 53.9803 65.9308 54.1394 68.296C54.2164 69.4329 53.6073 70.2296 52.6309 70.3052C51.7208 70.3751 50.9626 69.7032 50.8342 68.6283C50.6259 66.8873 50.4619 65.1406 50.2793 63.3967L50.3171 63.3881V63.3889Z" fill="#717171"/>
<path d="M54.7935 74.2718C55.0396 74.5036 55.643 74.8417 55.899 75.3538C56.9825 77.522 57.966 79.7409 58.9781 81.9448C59.406 82.877 59.1436 83.7622 58.3305 84.2072C57.5152 84.6537 56.5317 84.4333 56.0873 83.5289C54.9611 81.2373 53.8727 78.9235 52.8735 76.5741C52.3763 75.4051 53.2515 74.2261 54.7935 74.2718Z" fill="#717171"/>
<path d="M69.0443 94.3246C68.7133 94.7611 68.4644 95.3994 68.0215 95.5899C67.5401 95.7974 66.6642 95.8252 66.3332 95.5228C64.3269 93.6919 62.394 91.7762 60.5103 89.8176C59.9283 89.2128 60.1288 88.2777 60.735 87.7093C61.3384 87.1429 62.3248 87.0809 62.9461 87.6793C64.8133 89.4753 66.6542 91.299 68.4751 93.142C68.7269 93.3967 68.8089 93.8189 69.0443 94.3246Z" fill="#717171"/>
</svg>
